<?xml version="1.0" encoding="utf-8"?>
<!-- Generator: Adobe Illustrator 16.0.0, SVG Export Plug-In . SVG Version: 6.00 Build 0)  -->
<!DOCTYPE svg PUBLIC "-//W3C//DTD SVG 1.1//EN" "http://www.w3.org/Graphics/SVG/1.1/DTD/svg11.dtd">
<svg version="1.1" id="Layer_1" xmlns="http://www.w3.org/2000/svg" xmlns:xlink="http://www.w3.org/1999/xlink" x="0px" y="0px"
	 width="70px" height="70px" viewBox="0 0 70 70" enable-background="new 0 0 70 70" xml:space="preserve">
<g>
	<defs>
		<filter id="Adobe_OpacityMaskFilter" filterUnits="userSpaceOnUse" x="0" y="0" width="70" height="70">
			<feColorMatrix  type="matrix" values="1 0 0 0 0  0 1 0 0 0  0 0 1 0 0  0 0 0 1 0"/>
		</filter>
	</defs>
	<mask maskUnits="userSpaceOnUse" x="0" y="0" width="70" height="70" id="icon-b">
		<g filter="url(#Adobe_OpacityMaskFilter)">
			<path id="icon-a" fill="#FFFFFF" d="M4,0h61c4,0,5,1,5,5v60c0,4-1,5-5,5H4c-3,0-4-1-4-5V5C0,1,1,0,4,0z"/>
		</g>
	</mask>
	<g mask="url(#icon-b)">
		<path fill="#9B108E" d="M0,0h70v70H0V0z"/>
		<path fill="#FFFFFF" fill-opacity="0.383" d="M4,1h61c2.667,0,4.333,0.667,5,2V0H0v3C0.667,1.667,2,1,4,1z"/>
		<path opacity="0.165" enable-background="new    " d="M26.375,11.5l9.25,1.125L54,18.25l4,6.11v19.558L33.423,69H4.006
			C2.003,69,0,68.854,0,64.911V38.064l12.348-14L26.375,11.5z"/>
		<path fill-opacity="0.383" d="M4,69h61c2.667,0,4.333-1,5-3v4H0v-4C0.667,68,2,69,4,69z"/>
		<g display="none">
			<g id="Layer_1_1_" display="inline">
				<path fill="#FFFFFF" d="M35,8.281C20.246,8.281,8.281,20.246,8.281,35S20.246,61.719,35,61.719S61.719,49.754,61.719,35
					S49.754,8.281,35,8.281z M35,19.297c4.301,0,7.793,3.492,7.793,7.793c0,4.301-3.492,7.793-7.793,7.793s-7.793-3.492-7.793-7.793
					C27.207,22.789,30.699,19.297,35,19.297z M47.598,46.156c0,2.496-2.039,4.535-4.535,4.535H26.938
					c-2.496,0-4.535-2.039-4.535-4.535v-9.609c0-2.496,2.039-4.535,4.535-4.535h0.375c1.582,2.578,4.43,4.3,7.676,4.3
					s6.094-1.729,7.676-4.3h0.375c2.496,0,4.535,2.039,4.535,4.535v9.609H47.598z"/>
			</g>
			<g id="Layer_2" display="inline">
				<g>
					<path fill="#FFFFFF" d="M47.984,8.398H15.289c-3.223,0-5.859,2.637-5.859,5.859v41.484c0,3.223,2.637,5.858,5.859,5.858h32.695
						c3.223,0,5.854-2.646,5.854-5.858V14.258C53.844,11.035,51.207,8.398,47.984,8.398z M31.637,19.297
						c4.3,0,7.792,3.492,7.792,7.793c0,4.301-3.492,7.793-7.792,7.793c-4.301,0-7.793-3.492-7.793-7.793
						C23.844,22.789,27.324,19.297,31.637,19.297z M44.234,46.156c0,2.496-2.039,4.535-4.535,4.535H23.574
						c-2.496,0-4.535-2.039-4.535-4.535v-9.609c0-2.496,2.039-4.535,4.535-4.535h0.375c1.582,2.578,4.43,4.3,7.676,4.3
						s6.094-1.729,7.676-4.3h0.375c2.496,0,4.535,2.039,4.535,4.535v9.609H44.234z"/>
					<g>
						<g>
							<g>
								<g>
									<rect id="SVGID_2_" x="53.375" y="18.242" fill="#FFFFFF" width="7.207" height="32.227"/>
								</g>
								<g>
									<g>
										<g>
											<g>
												<g>
													<g>
														<g>
															<g>
																<g>
																	<g>
																		<g>
																			<defs>
																				<rect id="SVGID_1_" x="53.375" y="18.242" width="7.207" height="32.227"/>
																			</defs>
																			<clipPath id="SVGID_3_">
																				<use xlink:href="#SVGID_1_"  overflow="visible"/>
																			</clipPath>
																			<g clip-path="url(#SVGID_3_)">
																				<path fill="#FFFFFF" d="M59.41,19.063h-8.438c-0.646,0-1.183,0.527-1.183,1.172v5.391
																					c0,0.645,0.522,1.172,1.183,1.172h8.438c0.645,0,1.172-0.527,1.172-1.172v-5.391
																					C60.582,19.59,60.055,19.063,59.41,19.063z"/>
																				<path fill="#FFFFFF" d="M56.188,42.266H47.75c-0.645,0-1.172,0.527-1.172,1.172v5.396
																					c0,0.646,0.527,1.172,1.172,1.172h8.438c0.646,0,1.172-0.521,1.172-1.172v-5.396
																					C57.359,42.793,56.832,42.266,56.188,42.266z"/>
																				<path fill="#FFFFFF" d="M58.18,30.664h-8.438c-0.645,0-1.172,0.527-1.172,1.172v5.391
																					c0,0.646,0.527,1.172,1.172,1.172h8.438c0.646,0,1.172-0.521,1.172-1.172v-5.391
																					C59.352,31.191,58.824,30.664,58.18,30.664z"/>
																			</g>
																		</g>
																	</g>
																</g>
															</g>
														</g>
													</g>
												</g>
											</g>
										</g>
									</g>
								</g>
							</g>
						</g>
					</g>
				</g>
			</g>
			<g id="Layer_3" display="inline">
				<g>
					<path fill="#FFFFFF" d="M60.664,17.539h-2.402c-0.375,2.578-2.59,4.57-5.273,4.57c-2.682,0-4.899-1.992-5.271-4.57h-25.43
						c-0.375,2.578-2.59,4.57-5.273,4.57s-4.91-1.992-5.273-4.57H9.336c-0.645,0-1.172,0.527-1.172,1.172v37.734
						c0,0.645,0.527,1.172,1.172,1.172h51.328c0.645,0,1.172-0.527,1.172-1.172V18.711C61.836,18.066,61.309,17.539,60.664,17.539z
						 M23.281,25.508c3.305,0,5.988,2.684,5.988,5.988c0,3.304-2.684,5.988-5.988,5.988c-3.304,0-5.988-2.688-5.988-5.988
						C17.293,28.192,19.977,25.508,23.281,25.508z M32.961,46.156c0,1.922-1.57,3.492-3.492,3.492H17.082
						c-1.922,0-3.492-1.57-3.492-3.492v-7.383c0-1.922,1.57-3.492,3.492-3.492h0.293c1.219,1.979,3.398,3.305,5.906,3.305
						c2.508,0,4.688-1.324,5.906-3.305h0.293c1.922,0,3.492,1.57,3.492,3.492v7.383H32.961z M56.328,45.781
						c0,0.645-0.527,1.172-1.172,1.172H36.992c-0.645,0-1.172-0.527-1.172-1.172v-0.82c0-0.645,0.527-1.172,1.172-1.172h18.164
						c0.645,0,1.172,0.527,1.172,1.172V45.781z M56.328,38.164c0,0.645-0.527,1.172-1.172,1.172H36.992
						c-0.645,0-1.172-0.527-1.172-1.172v-0.82c0-0.645,0.527-1.172,1.172-1.172h18.164c0.645,0,1.172,0.527,1.172,1.172V38.164z
						 M56.328,30.547c0,0.645-0.527,1.172-1.172,1.172H36.992c-0.645,0-1.172-0.527-1.172-1.172v-0.82
						c0-0.645,0.527-1.172,1.172-1.172h18.164c0.645,0,1.172,0.527,1.172,1.172V30.547z"/>
					<path fill="#FFFFFF" d="M17.012,12.383c-2.367,0-4.277,1.91-4.277,4.277c0,2.367,1.91,4.277,4.277,4.277
						c2.367,0,4.277-1.91,4.277-4.277C21.289,14.293,19.379,12.383,17.012,12.383z M17.012,19.414c-1.523,0-2.754-1.23-2.754-2.754
						c0-1.524,1.23-2.754,2.754-2.754c1.524,0,2.754,1.229,2.754,2.754C19.766,18.184,18.535,19.414,17.012,19.414z"/>
					<path fill="#FFFFFF" d="M53.105,12.383c-2.367,0-4.277,1.91-4.277,4.277c0,2.367,1.91,4.277,4.277,4.277
						s4.271-1.91,4.271-4.277C57.382,14.293,55.473,12.383,53.105,12.383z M53.105,19.414c-1.523,0-2.754-1.23-2.754-2.754
						c0-1.524,1.229-2.754,2.754-2.754c1.521,0,2.754,1.229,2.754,2.754C55.859,18.184,54.629,19.414,53.105,19.414z"/>
				</g>
			</g>
			<g id="Layer_4" display="inline">
				<g>
					<path fill="#FFFFFF" d="M46.883,26.41h-7.5c-0.48,0-0.879,0.398-0.879,0.879l0,0c0,0.48,0.398,0.879,0.879,0.879h7.5
						c0.48,0,0.879-0.398,0.879-0.879l0,0C47.762,26.797,47.363,26.41,46.883,26.41z"/>
					<path fill="#FFFFFF" d="M46.883,23.199h-7.5c-0.48,0-0.879,0.398-0.879,0.879s0.398,0.879,0.879,0.879h7.5
						c0.48,0,0.879-0.398,0.879-0.879S47.363,23.199,46.883,23.199z"/>
					<path fill="#FFFFFF" d="M35,8.281C20.246,8.281,8.281,20.246,8.281,35S20.246,61.719,35,61.719S61.719,49.754,61.719,35
						S49.754,8.281,35,8.281z M28.086,27.734c3.34,0,6.047,2.707,6.047,6.047c0,3.34-2.707,6.047-6.047,6.047
						s-6.047-2.707-6.047-6.047C22.039,30.441,24.746,27.734,28.086,27.734z M37.871,48.582c0,1.934-1.582,3.527-3.527,3.527H21.828
						c-1.934,0-3.527-1.582-3.527-3.527v-7.465c0-1.934,1.582-3.527,3.527-3.527h0.293c1.23,2.004,3.434,3.34,5.965,3.34
						c2.531,0,4.734-1.336,5.965-3.34h0.293c1.933,0,3.527,1.582,3.527,3.527V48.582z M52.508,26.527c0,2.098-1.488,3.82-3.305,3.82
						h-7.277l-7.02,2.777l2.098-2.789h0.047c-1.816,0-3.305-1.723-3.305-3.82v-4.84c0-2.098,1.488-3.82,3.305-3.82h12.152
						c1.816,0,3.305,1.723,3.305,3.82V26.527z"/>
					<path fill="#FFFFFF" d="M46.883,20h-7.5c-0.48,0-0.879,0.398-0.879,0.879s0.398,0.879,0.879,0.879h7.5
						c0.48,0,0.879-0.398,0.879-0.879S47.363,20,46.883,20z"/>
				</g>
			</g>
			<g id="Layer_5" display="inline">
				<path fill="#FFFFFF" d="M34.883,8.164c-14.754,0-26.719,11.965-26.719,26.719s11.965,26.719,26.719,26.719
					s26.719-11.965,26.719-26.719S49.637,8.164,34.883,8.164z M29.445,22.203c3.984,0,7.219,3.234,7.219,7.219
					c0,3.985-3.234,7.219-7.219,7.219c-3.985,0-7.219-3.229-7.219-7.219C22.226,25.437,25.461,22.203,29.445,22.203z M41.105,47.082
					c0,2.309-1.896,4.207-4.207,4.207H21.98c-2.309,0-4.207-1.887-4.207-4.207v-8.895c0-2.313,1.887-4.208,4.207-4.208h0.352
					c1.465,2.391,4.102,3.984,7.113,3.984c3.011,0,5.648-1.594,7.114-3.984h0.354c2.312,0,4.207,1.887,4.207,4.208v8.895H41.105z
					 M49.344,29.129v5.988h-2.801v-5.988h-5.988v-2.801h5.988v-5.977h2.801v5.988h5.988v2.801h-5.988V29.129z"/>
			</g>
			<g id="Layer_6" display="inline">
				<path fill="#FFFFFF" d="M35,8.281C20.246,8.281,8.281,20.246,8.281,35S20.246,61.719,35,61.719S61.719,49.754,61.719,35
					S49.754,8.281,35,8.281z M29.563,22.32c3.984,0,7.219,3.234,7.219,7.219s-3.234,7.219-7.219,7.219s-7.219-3.234-7.219-7.219
					S25.578,22.32,29.563,22.32z M41.223,47.199c0,2.309-1.887,4.207-4.207,4.207H22.098c-2.309,0-4.207-1.887-4.207-4.207v-8.895
					c0-2.313,1.887-4.208,4.207-4.208h0.352c1.465,2.39,4.102,3.984,7.113,3.984s5.648-1.596,7.113-3.984h0.352
					c2.313,0,4.207,1.886,4.207,4.208v8.895H41.223z M40.742,29.258v-2.813h14.297v2.813H40.742z"/>
			</g>
			<g id="Layer_7" display="inline">
				<path fill="#FFFFFF" d="M35,8.281C20.246,8.281,8.281,20.246,8.281,35S20.246,61.719,35,61.719S61.719,49.754,61.719,35
					S49.754,8.281,35,8.281z M29.563,22.32c3.984,0,7.219,3.234,7.219,7.219s-3.234,7.219-7.219,7.219s-7.219-3.234-7.219-7.219
					S25.578,22.32,29.563,22.32z M41.223,47.199c0,2.309-1.887,4.207-4.207,4.207H22.098c-2.309,0-4.207-1.887-4.207-4.207v-8.895
					c0-2.313,1.887-4.208,4.207-4.208h0.352c1.465,2.39,4.102,3.984,7.113,3.984s5.648-1.596,7.113-3.984h0.352
					c2.313,0,4.207,1.886,4.207,4.208v8.895H41.223z M48.219,33.031l-1.992,1.992l-1.992-1.992l-4.805-4.805l1.992-1.992
					l4.805,4.805l8.121-8.121l1.992,1.992L48.219,33.031z"/>
			</g>
			<g id="Layer_8" display="inline">
				<g>
					<path fill="#FFFFFF" d="M35,8.281C20.246,8.281,8.281,20.246,8.281,35S20.246,61.719,35,61.719S61.719,49.754,61.719,35
						S49.754,8.281,35,8.281z M44.926,17.07c3.023,0,5.473,2.449,5.473,5.473s-2.438,5.473-5.473,5.473
						c-3.023,0-5.473-2.449-5.473-5.473S41.902,17.07,44.926,17.07z M40.461,36.605c0,3.021-2.449,5.473-5.473,5.473
						s-5.473-2.449-5.473-5.473c0-3.024,2.449-5.479,5.473-5.479S40.461,33.582,40.461,36.605z M25.074,17.07
						c3.023,0,5.473,2.449,5.473,5.473s-2.449,5.473-5.473,5.473c-3.024,0-5.473-2.449-5.473-5.473S22.051,17.07,25.074,17.07z
						 M16.238,35.914v-6.738c0-1.746,1.43-3.188,3.188-3.188h0.27c1.113,1.816,3.105,3.023,5.391,3.023s4.277-1.207,5.391-3.023
						h0.27c1.746,0,3.188,1.43,3.188,3.188v1.289c-2.953,0.504-5.203,3.07-5.203,6.141c0,0.896,0.188,1.734,0.527,2.496h-9.844
						C17.668,39.102,16.238,37.672,16.238,35.914z M43.836,49.742c0,1.746-1.43,3.188-3.188,3.188H29.34
						c-1.746,0-3.188-1.43-3.188-3.188v-6.738c0-1.746,1.43-3.188,3.188-3.188h0.27c1.113,1.813,3.105,3.021,5.391,3.021
						s4.276-1.207,5.392-3.021h0.271c1.746,0,3.188,1.43,3.188,3.188v6.738H43.836z M53.762,35.914c0,1.746-1.43,3.188-3.188,3.188
						h-9.82c0.34-0.762,0.527-1.604,0.527-2.496c0-3.082-2.25-5.637-5.203-6.141v-1.289c0-1.746,1.43-3.188,3.188-3.188h0.271
						c1.111,1.816,3.104,3.023,5.391,3.023s4.277-1.207,5.393-3.023h0.271c1.746,0,3.188,1.43,3.188,3.188v6.738H53.762z"/>
				</g>
			</g>
		</g>
	</g>
</g>
<circle fill="#FFFFFF" cx="35" cy="35" r="26.5"/>
<g>
	<path fill-rule="evenodd" clip-rule="evenodd" d="M35.82,48.929c-3.729,0.053-6.969,0.11-10.208,0.144
		c-1.885,0.02-3.77,0.018-5.653-0.002c-1.556-0.017-2.16-0.624-2.16-2.184c-0.001-4.688,0.021-9.374,0.023-14.061
		c0.001-3.643-0.015-7.287-0.022-10.93c0-0.256-0.002-0.514,0.019-0.769c0.072-0.875,0.551-1.427,1.407-1.588
		c0.357-0.067,0.728-0.098,1.092-0.098c10.032-0.005,20.065-0.007,30.097,0.001c2.037,0.001,2.551,0.55,2.551,2.594
		c0,5.988,0,11.975-0.002,17.963c0,2.16,0,4.319,0,6.479c0,0.109,0.002,0.222,0,0.33c-0.02,1.65-0.615,2.266-2.256,2.277
		c-1.904,0.013-3.809,0.02-5.712-0.004C41.774,49.043,38.553,48.977,35.82,48.929z M18.645,23.815
		c-0.01,0.209-0.026,0.37-0.026,0.532c-0.007,2.855-0.014,5.71-0.016,8.565c-0.001,4.613,0.004,9.227,0.001,13.838
		c-0.001,1.217,0.247,1.494,1.469,1.504c1.61,0.014,3.22,0.011,4.83,0.007c5.601-0.013,11.202-0.034,16.805-0.038
		c3.02-0.004,6.04,0.027,9.06,0.025c1.107-0.002,1.359-0.279,1.359-1.371c0-1.793-0.007-3.586-0.007-5.379
		c0.003-5.693,0.005-11.387,0.005-17.08c0-0.192-0.021-0.386-0.034-0.603C40.927,23.815,29.817,23.815,18.645,23.815z
		 M52.124,23.471c0-0.734,0.021-1.39-0.007-2.044c-0.034-0.86-0.319-1.12-1.198-1.135c-1.499-0.027-2.999-0.062-4.501-0.061
		c-8.309,0.006-16.617,0.021-24.926,0.035c-0.622,0-1.246-0.006-1.866,0.031c-0.644,0.038-0.929,0.316-0.99,0.952
		c-0.037,0.382-0.019,0.769-0.019,1.152c0,1.053,0.001,1.058,1.039,1.058c10.105,0.004,20.209,0.007,30.314,0.011
		C50.663,23.471,51.359,23.471,52.124,23.471z"/>
	<path fill-rule="evenodd" clip-rule="evenodd" fill="#FFFFFF" d="M18.645,23.815c11.173,0,22.282,0,33.447,0
		c0.013,0.217,0.034,0.411,0.034,0.603c0,5.693-0.002,11.387-0.005,17.08c0,1.793,0.007,3.586,0.007,5.379
		c0,1.092-0.252,1.369-1.359,1.371c-3.02,0.002-6.04-0.029-9.06-0.025c-5.604,0.004-11.205,0.025-16.805,0.038
		c-1.61,0.004-3.22,0.007-4.83-0.007c-1.222-0.01-1.47-0.287-1.469-1.504c0.003-4.611-0.003-9.225-0.001-13.838
		c0.001-2.854,0.009-5.71,0.016-8.565C18.619,24.186,18.634,24.024,18.645,23.815z M35.619,25.129
		c-4.503,0-9.006-0.003-13.508,0.001c-1.17,0.002-1.63,0.464-1.637,1.635c-0.01,1.684-0.011,3.368-0.008,5.051
		c0.003,1.442,0.423,1.856,1.869,1.856c8.839,0.001,17.68,0.001,26.519,0.001c1.523,0,1.984-0.429,2.001-1.941
		c0.015-1.445-0.013-2.891-0.017-4.337c-0.005-1.949-0.332-2.271-2.258-2.268C44.259,25.135,39.94,25.13,35.619,25.129z
		 M35.345,45.147c0,0.007,0,0.011,0,0.016c0.549,0,1.098,0.001,1.647,0c0.237-0.003,0.477-0.009,0.714-0.02
		c1.024-0.051,1.485-0.526,1.5-1.562c0.011-0.806,0.012-1.611,0.004-2.416c-0.01-1.331-0.431-1.788-1.771-1.815
		c-1.464-0.029-2.929-0.021-4.392,0.009c-1.031,0.021-1.458,0.464-1.488,1.498c-0.026,0.932-0.023,1.866-0.014,2.799
		c0.011,0.999,0.48,1.466,1.493,1.489C33.808,45.163,34.577,45.147,35.345,45.147z M24.256,45.147c0-0.004,0-0.008,0-0.013
		c0.842,0,1.685,0.029,2.524-0.008c0.826-0.038,1.307-0.559,1.328-1.374c0.022-0.859,0.032-1.718,0.028-2.578
		c-0.007-1.336-0.432-1.798-1.759-1.824c-1.444-0.027-2.89-0.02-4.334,0.004c-1.096,0.018-1.521,0.444-1.558,1.545
		c-0.029,0.913-0.027,1.828-0.016,2.743c0.013,1.008,0.478,1.478,1.483,1.503C22.72,45.163,23.488,45.147,24.256,45.147z
		 M46.273,45.146c0.806,0,1.611,0.025,2.416-0.009c1.026-0.04,1.46-0.475,1.498-1.494c0.029-0.822,0.029-1.646,0.021-2.468
		c-0.016-1.368-0.438-1.806-1.813-1.826c-1.427-0.021-2.854-0.018-4.282,0.006c-1.093,0.018-1.528,0.452-1.557,1.543
		c-0.025,0.934-0.026,1.866-0.012,2.798c0.016,0.94,0.486,1.418,1.425,1.446C44.737,45.163,45.506,45.146,46.273,45.146z
		 M35.467,34.518c0,0.003,0,0.005,0,0.008c-1.938,0-3.876,0-5.814,0c-0.146,0-0.307-0.031-0.434,0.02
		c-0.113,0.044-0.26,0.184-0.258,0.28c0.001,0.097,0.154,0.216,0.267,0.275c0.087,0.046,0.215,0.016,0.324,0.016
		c3.913,0.002,7.825,0.004,11.738,0.005c0.183,0,0.373,0.012,0.542-0.038c0.095-0.028,0.212-0.176,0.209-0.269
		c0-0.088-0.122-0.229-0.217-0.256c-0.172-0.05-0.361-0.04-0.544-0.04C39.343,34.517,37.405,34.518,35.467,34.518z M49.653,36.083
		c0.004-0.079,0.008-0.16,0.013-0.24c-0.33,0-0.661,0-0.994,0c-8.802-0.007-17.604-0.016-26.405-0.018
		c-0.187,0-0.374,0.071-0.562,0.11c0.011,0.05,0.02,0.099,0.03,0.147C31.042,36.083,40.348,36.083,49.653,36.083z M26.366,35.111
		c0,0.002,0,0.003,0,0.005c0.438,0,0.879,0.026,1.313-0.014c0.151-0.015,0.286-0.196,0.427-0.301
		c-0.136-0.091-0.269-0.256-0.407-0.259c-0.895-0.021-1.789-0.018-2.683,0.008c-0.133,0.004-0.262,0.172-0.394,0.265
		c0.143,0.099,0.279,0.27,0.43,0.283C25.487,35.137,25.928,35.111,26.366,35.111z M25.322,38.545c0,0.005,0,0.008,0,0.011
		c0.384,0,0.771,0.023,1.151-0.013c0.147-0.013,0.282-0.161,0.422-0.249c-0.138-0.11-0.272-0.309-0.414-0.315
		c-0.748-0.027-1.5-0.023-2.248,0.009c-0.125,0.004-0.243,0.192-0.364,0.295c0.119,0.088,0.231,0.238,0.356,0.251
		C24.588,38.566,24.956,38.545,25.322,38.545z M26.711,46.171c0-0.049-0.001-0.096-0.001-0.145c-1.683,0-3.365,0-5.047,0
		c0,0.049,0.001,0.096,0.001,0.145C23.346,46.171,25.028,46.171,26.711,46.171z M43.752,45.966c0,0.072,0,0.144,0.001,0.213
		c1.678,0,3.354,0,5.031,0c0-0.071,0-0.144,0-0.218C47.108,45.902,45.431,45.949,43.752,45.966z M32.729,45.974
		c0,0.065,0,0.132,0,0.197c1.687,0,3.373,0,5.06,0c0-0.065,0-0.13,0-0.192C36.102,45.885,34.416,45.951,32.729,45.974z
		 M47.564,38.546c0,0.003,0,0.004,0,0.005c0.326,0,0.657,0.03,0.978-0.015c0.154-0.021,0.289-0.186,0.431-0.285
		c-0.136-0.095-0.267-0.263-0.404-0.268c-0.65-0.025-1.307-0.023-1.959,0.007c-0.127,0.006-0.245,0.185-0.369,0.285
		c0.133,0.09,0.256,0.24,0.397,0.26C46.941,38.573,47.255,38.546,47.564,38.546z M36.719,38.543c0,0,0,0.002,0.001,0.002
		c0.31,0,0.622,0.027,0.927-0.015c0.116-0.015,0.214-0.188,0.319-0.287c-0.1-0.089-0.194-0.25-0.296-0.254
		c-0.582-0.022-1.164-0.022-1.748,0.002c-0.099,0.005-0.189,0.169-0.285,0.26c0.105,0.098,0.2,0.257,0.32,0.279
		C36.205,38.573,36.465,38.543,36.719,38.543z M44.639,38.541c0,0,0-0.001,0-0.003c0.292,0,0.586,0.024,0.872-0.012
		c0.105-0.013,0.195-0.163,0.291-0.253c-0.088-0.097-0.171-0.271-0.264-0.275c-0.564-0.028-1.129-0.029-1.691-0.006
		c-0.101,0.006-0.196,0.168-0.293,0.257c0.106,0.099,0.202,0.258,0.323,0.279C44.124,38.572,44.385,38.541,44.639,38.541z
		 M33.724,37.977c-0.272,0-0.55-0.027-0.818,0.012c-0.127,0.018-0.235,0.164-0.352,0.254c0.105,0.101,0.206,0.279,0.316,0.286
		c0.545,0.029,1.093,0.024,1.638,0c0.102-0.005,0.197-0.162,0.295-0.249c-0.104-0.1-0.197-0.267-0.316-0.288
		C34.24,37.945,33.979,37.978,33.724,37.977z M22.645,35.111c0.256,0,0.517,0.029,0.766-0.012c0.127-0.021,0.235-0.169,0.352-0.26
		c-0.107-0.1-0.21-0.278-0.323-0.285c-0.51-0.032-1.024-0.03-1.535,0c-0.12,0.006-0.232,0.166-0.348,0.255
		c0.125,0.101,0.238,0.259,0.377,0.289C22.162,35.147,22.407,35.111,22.645,35.111z M21.674,46.896c0,0.051,0,0.102,0.001,0.152
		c1.661,0,3.321,0,4.98,0c0-0.051,0-0.102-0.001-0.152C24.995,46.896,23.334,46.896,21.674,46.896z M32.754,46.913
		c0,0.048,0,0.101,0,0.151c1.677,0,3.355,0,5.032,0c0-0.051,0-0.104-0.001-0.151C36.108,46.913,34.432,46.913,32.754,46.913z
		 M48.78,47.087c-0.554-0.346-4.711-0.299-5.095,0C45.431,47.087,47.104,47.087,48.78,47.087z M22.21,38.707
		c0.33-0.182,0.801-0.344,0.789-0.451c-0.057-0.491-0.503-0.25-0.786-0.267c-0.249-0.015-0.665-0.181-0.684,0.256
		C21.522,38.376,21.933,38.527,22.21,38.707z"/>
	<path fill-rule="evenodd" clip-rule="evenodd" fill="#FFFFFF" d="M52.124,23.471c-0.765,0-1.461,0-2.154,0
		c-10.105-0.004-20.209-0.007-30.314-0.011c-1.037,0-1.039-0.005-1.039-1.058c0-0.383-0.019-0.77,0.019-1.152
		c0.062-0.636,0.346-0.915,0.99-0.952c0.62-0.037,1.244-0.031,1.866-0.031c8.309-0.014,16.618-0.029,24.926-0.035
		c1.502-0.001,3.002,0.034,4.501,0.061c0.879,0.015,1.164,0.275,1.198,1.135C52.145,22.081,52.124,22.737,52.124,23.471z
		 M26.19,22.739c0.502,0.008,0.854-0.338,0.867-0.853c0.015-0.525-0.358-0.913-0.873-0.908c-0.49,0.004-0.874,0.373-0.888,0.853
		C25.281,22.316,25.69,22.731,26.19,22.739z M21.752,21.854c0-0.494-0.368-0.87-0.854-0.873c-0.534-0.002-0.906,0.362-0.9,0.882
		c0.004,0.51,0.397,0.884,0.915,0.874C21.407,22.728,21.752,22.364,21.752,21.854z M23.562,20.982
		c-0.524-0.03-0.925,0.327-0.946,0.839c-0.019,0.469,0.352,0.88,0.823,0.913c0.518,0.037,0.913-0.316,0.94-0.841
		C24.405,21.416,24.039,21.009,23.562,20.982z"/>
	<path fill-rule="evenodd" clip-rule="evenodd" d="M35.619,25.129c4.321,0.001,8.64,0.005,12.96-0.001
		c1.926-0.002,2.253,0.319,2.258,2.268c0.004,1.446,0.031,2.892,0.017,4.337c-0.017,1.512-0.478,1.941-2.001,1.941
		c-8.839,0-17.679,0-26.519-0.001c-1.445,0-1.866-0.414-1.869-1.856c-0.003-1.684-0.001-3.368,0.008-5.051
		c0.007-1.171,0.467-1.633,1.637-1.635C26.613,25.126,31.116,25.129,35.619,25.129z M35.67,25.709c0,0.007,0,0.014,0,0.021
		c-3.148,0-6.296,0.002-9.445,0c-1.373-0.001-2.746-0.014-4.118-0.013c-0.758,0.001-1.026,0.219-1.034,0.89
		c-0.021,1.775-0.035,3.551-0.022,5.326c0.007,0.995,0.221,1.173,1.216,1.171c6.184-0.009,12.367-0.017,18.55-0.024
		c2.764-0.002,5.528,0.007,8.292,0c0.899-0.002,1.147-0.259,1.147-1.143c0-1.666-0.003-3.332-0.015-4.998
		c-0.007-1.011-0.233-1.229-1.229-1.229C44.564,25.709,40.117,25.709,35.67,25.709z"/>
	<path fill-rule="evenodd" clip-rule="evenodd" d="M35.345,45.147c-0.769,0-1.538,0.016-2.306-0.002
		c-1.013-0.023-1.482-0.49-1.493-1.489c-0.01-0.933-0.013-1.867,0.014-2.799c0.029-1.034,0.457-1.478,1.488-1.498
		c1.463-0.03,2.928-0.038,4.392-0.009c1.34,0.027,1.761,0.484,1.771,1.815c0.008,0.805,0.007,1.61-0.004,2.416
		c-0.015,1.035-0.476,1.511-1.5,1.562c-0.237,0.011-0.477,0.017-0.714,0.02c-0.549,0.001-1.098,0-1.647,0
		C35.345,45.158,35.345,45.154,35.345,45.147z M35.312,44.583c0-0.003,0-0.006,0-0.011c0.805,0,1.609,0.018,2.415-0.006
		c0.582-0.019,0.877-0.283,0.891-0.828c0.021-0.988,0-1.976-0.021-2.964c-0.012-0.53-0.315-0.807-0.839-0.812
		c-1.593-0.006-3.184-0.007-4.775,0.002c-0.52,0.005-0.83,0.286-0.842,0.814c-0.022,0.968-0.045,1.94-0.017,2.908
		c0.018,0.636,0.301,0.88,0.938,0.893C33.811,44.596,34.562,44.583,35.312,44.583z"/>
	<path fill-rule="evenodd" clip-rule="evenodd" d="M24.256,45.147c-0.768,0-1.536,0.016-2.305-0.002
		c-1.005-0.025-1.47-0.495-1.483-1.503c-0.011-0.915-0.013-1.83,0.016-2.743c0.036-1.101,0.462-1.527,1.558-1.545
		c1.444-0.023,2.89-0.031,4.334-0.004c1.327,0.026,1.752,0.488,1.759,1.824c0.004,0.86-0.005,1.719-0.028,2.578
		c-0.021,0.815-0.502,1.336-1.328,1.374c-0.84,0.037-1.683,0.008-2.524,0.008C24.256,45.14,24.256,45.144,24.256,45.147z
		 M24.272,44.581c0-0.001,0-0.006,0-0.008c0.787,0,1.574,0.007,2.36-0.004c0.529-0.005,0.907-0.262,0.919-0.811
		c0.022-1.003-0.008-2.01-0.03-3.016c-0.012-0.515-0.323-0.771-0.811-0.775c-1.61-0.012-3.22-0.012-4.83,0.002
		c-0.455,0.005-0.784,0.234-0.796,0.729c-0.023,1.006-0.046,2.012-0.022,3.018c0.015,0.615,0.286,0.848,0.904,0.86
		C22.734,44.595,23.504,44.581,24.272,44.581z"/>
	<path fill-rule="evenodd" clip-rule="evenodd" d="M46.273,45.146c-0.768,0-1.536,0.018-2.304-0.004
		c-0.938-0.028-1.409-0.506-1.425-1.446c-0.015-0.932-0.014-1.864,0.012-2.798c0.028-1.091,0.464-1.525,1.557-1.543
		c1.428-0.023,2.855-0.027,4.282-0.006c1.376,0.021,1.798,0.458,1.813,1.826c0.008,0.821,0.008,1.646-0.021,2.468
		c-0.038,1.02-0.472,1.454-1.498,1.494C47.885,45.171,47.079,45.146,46.273,45.146z M46.399,39.955c0,0.001,0,0.002,0,0.005
		c-0.785,0-1.571-0.012-2.356,0.001c-0.435,0.009-0.847,0.146-0.865,0.649c-0.042,1.075-0.043,2.153-0.026,3.23
		c0.007,0.44,0.286,0.724,0.738,0.728c1.643,0.009,3.286,0.012,4.931-0.011c0.505-0.008,0.82-0.294,0.82-0.833
		c0.002-0.931,0.015-1.863-0.021-2.794c-0.031-0.754-0.272-0.962-1.026-0.974C47.86,39.946,47.13,39.955,46.399,39.955z"/>
	<path fill-rule="evenodd" clip-rule="evenodd" d="M35.467,34.518c1.938,0,3.875,0,5.814,0.001c0.183,0,0.372-0.01,0.544,0.04
		c0.095,0.027,0.217,0.168,0.217,0.256c0.003,0.093-0.114,0.24-0.209,0.269c-0.169,0.05-0.359,0.038-0.542,0.038
		c-3.913-0.001-7.826-0.003-11.738-0.005c-0.109,0-0.237,0.03-0.324-0.016c-0.112-0.059-0.265-0.178-0.267-0.275
		c-0.002-0.096,0.145-0.235,0.258-0.28c0.126-0.051,0.287-0.02,0.434-0.02c1.938,0,3.875,0,5.814,0
		C35.467,34.523,35.467,34.521,35.467,34.518z"/>
	<path fill-rule="evenodd" clip-rule="evenodd" d="M49.653,36.083c-9.306,0-18.612,0-27.918,0c-0.01-0.049-0.019-0.098-0.03-0.147
		c0.188-0.039,0.375-0.11,0.562-0.11c8.801,0.002,17.604,0.011,26.405,0.018c0.333,0,0.664,0,0.994,0
		C49.661,35.923,49.657,36.004,49.653,36.083z"/>
	<path fill-rule="evenodd" clip-rule="evenodd" d="M26.366,35.111c-0.438,0-0.879,0.025-1.313-0.013
		c-0.15-0.014-0.287-0.184-0.43-0.283c0.132-0.092,0.26-0.26,0.394-0.265c0.894-0.026,1.789-0.029,2.683-0.008
		c0.138,0.003,0.271,0.168,0.407,0.259c-0.142,0.105-0.276,0.287-0.427,0.301c-0.434,0.041-0.875,0.014-1.313,0.014
		C26.366,35.114,26.366,35.114,26.366,35.111z"/>
	<path fill-rule="evenodd" clip-rule="evenodd" d="M25.322,38.545c-0.366,0-0.734,0.021-1.097-0.012
		c-0.125-0.013-0.237-0.163-0.356-0.251c0.121-0.103,0.238-0.291,0.364-0.295c0.748-0.032,1.5-0.036,2.248-0.009
		c0.142,0.007,0.276,0.205,0.414,0.315c-0.14,0.088-0.275,0.236-0.422,0.249c-0.38,0.036-0.767,0.013-1.151,0.013
		C25.322,38.553,25.322,38.55,25.322,38.545z"/>
	<path fill-rule="evenodd" clip-rule="evenodd" d="M26.711,46.171c-1.683,0-3.365,0-5.047,0c0-0.049-0.001-0.096-0.001-0.145
		c1.682,0,3.364,0,5.047,0C26.71,46.075,26.711,46.122,26.711,46.171z"/>
	<path fill-rule="evenodd" clip-rule="evenodd" d="M43.752,45.966c1.679-0.017,3.356-0.063,5.032-0.005c0,0.074,0,0.146,0,0.218
		c-1.678,0-3.354,0-5.031,0C43.752,46.109,43.752,46.038,43.752,45.966z"/>
	<path fill-rule="evenodd" clip-rule="evenodd" d="M32.729,45.974c1.687-0.022,3.373-0.089,5.059,0.005c0,0.063,0,0.127,0,0.192
		c-1.687,0-3.373,0-5.06,0C32.729,46.105,32.729,46.039,32.729,45.974z"/>
	<path fill-rule="evenodd" clip-rule="evenodd" d="M47.564,38.546c-0.31,0-0.623,0.027-0.927-0.011
		c-0.142-0.02-0.265-0.17-0.397-0.26c0.124-0.101,0.242-0.279,0.369-0.285c0.652-0.03,1.309-0.032,1.959-0.007
		c0.138,0.005,0.269,0.173,0.404,0.268c-0.142,0.1-0.276,0.265-0.431,0.285c-0.32,0.045-0.651,0.015-0.978,0.015
		C47.564,38.55,47.564,38.549,47.564,38.546z"/>
	<path fill-rule="evenodd" clip-rule="evenodd" d="M36.719,38.543c-0.254,0-0.514,0.03-0.762-0.013
		c-0.12-0.022-0.215-0.182-0.32-0.279c0.096-0.091,0.187-0.255,0.285-0.26c0.584-0.024,1.166-0.024,1.748-0.002
		c0.102,0.004,0.196,0.165,0.296,0.254c-0.105,0.1-0.203,0.272-0.319,0.287c-0.305,0.042-0.617,0.015-0.927,0.015
		C36.719,38.545,36.719,38.543,36.719,38.543z"/>
	<path fill-rule="evenodd" clip-rule="evenodd" d="M44.639,38.541c-0.254,0-0.515,0.031-0.762-0.013
		c-0.121-0.021-0.217-0.181-0.323-0.279c0.097-0.089,0.192-0.251,0.293-0.257c0.563-0.023,1.127-0.022,1.691,0.006
		c0.093,0.005,0.176,0.179,0.264,0.275c-0.096,0.09-0.186,0.24-0.291,0.253c-0.286,0.036-0.58,0.012-0.872,0.012
		C44.639,38.54,44.639,38.541,44.639,38.541z"/>
	<path fill-rule="evenodd" clip-rule="evenodd" d="M33.724,37.977c0.255,0.001,0.517-0.031,0.763,0.015
		c0.119,0.021,0.212,0.188,0.316,0.288c-0.098,0.087-0.193,0.244-0.295,0.249c-0.545,0.024-1.093,0.029-1.638,0
		c-0.11-0.007-0.211-0.186-0.316-0.286c0.117-0.09,0.225-0.236,0.352-0.254C33.174,37.949,33.451,37.977,33.724,37.977z"/>
	<path fill-rule="evenodd" clip-rule="evenodd" d="M22.645,35.111c-0.238,0-0.483,0.036-0.711-0.013
		c-0.14-0.03-0.252-0.188-0.377-0.289c0.116-0.09,0.228-0.249,0.348-0.255c0.511-0.029,1.024-0.031,1.535,0
		c0.113,0.007,0.216,0.185,0.323,0.285c-0.116,0.091-0.224,0.238-0.352,0.26C23.162,35.14,22.901,35.111,22.645,35.111z"/>
	<path fill-rule="evenodd" clip-rule="evenodd" d="M21.674,46.896c1.66,0,3.32,0,4.98,0c0,0.051,0.001,0.102,0.001,0.152
		c-1.66,0-3.32,0-4.98,0C21.675,46.997,21.675,46.946,21.674,46.896z"/>
	<path fill-rule="evenodd" clip-rule="evenodd" d="M32.754,46.913c1.677,0,3.354,0,5.031,0c0.001,0.048,0.001,0.101,0.001,0.151
		c-1.677,0-3.354,0-5.032,0C32.754,47.014,32.754,46.961,32.754,46.913z"/>
	<path fill-rule="evenodd" clip-rule="evenodd" d="M48.78,47.087c-1.677,0-3.35,0-5.095,0C44.069,46.788,48.227,46.741,48.78,47.087
		z"/>
	<path fill-rule="evenodd" clip-rule="evenodd" d="M22.21,38.707c-0.277-0.18-0.688-0.331-0.682-0.462
		c0.02-0.437,0.436-0.271,0.684-0.256c0.283,0.017,0.729-0.225,0.786,0.267C23.011,38.363,22.54,38.525,22.21,38.707z"/>
	<path fill-rule="evenodd" clip-rule="evenodd" d="M26.19,22.739c-0.5-0.008-0.91-0.423-0.894-0.908
		c0.015-0.479,0.398-0.848,0.888-0.853c0.515-0.005,0.888,0.383,0.873,0.908C27.045,22.401,26.692,22.748,26.19,22.739z
		 M26.817,21.968c-0.005-0.079-0.009-0.16-0.014-0.238c-0.199-0.135-0.426-0.405-0.589-0.371c-0.219,0.045-0.389,0.326-0.58,0.507
		c0.188,0.181,0.36,0.483,0.566,0.508C26.388,22.396,26.61,22.115,26.817,21.968z"/>
	<path fill-rule="evenodd" clip-rule="evenodd" d="M21.752,21.854c0,0.511-0.345,0.875-0.839,0.883
		c-0.518,0.01-0.911-0.364-0.915-0.874c-0.006-0.52,0.367-0.884,0.9-0.882C21.385,20.983,21.752,21.359,21.752,21.854z
		 M21.511,21.966c-0.004-0.079-0.008-0.158-0.012-0.237c-0.2-0.135-0.39-0.356-0.604-0.384c-0.36-0.046-0.621,0.217-0.54,0.569
		c0.045,0.193,0.343,0.458,0.527,0.458C21.093,22.373,21.302,22.113,21.511,21.966z"/>
	<path fill-rule="evenodd" clip-rule="evenodd" d="M23.562,20.982c0.477,0.027,0.844,0.434,0.818,0.911
		c-0.027,0.525-0.422,0.878-0.94,0.841c-0.471-0.033-0.842-0.444-0.823-0.913C22.636,21.309,23.038,20.952,23.562,20.982z
		 M24.137,21.944c-0.005-0.078-0.009-0.155-0.014-0.232c-0.204-0.129-0.398-0.342-0.615-0.369c-0.322-0.039-0.551,0.177-0.548,0.532
		c0.003,0.357,0.235,0.575,0.557,0.51C23.744,22.339,23.931,22.099,24.137,21.944z"/>
	<path fill-rule="evenodd" clip-rule="evenodd" fill="#FFFFFF" d="M35.67,25.709c4.447,0,8.895,0,13.343,0
		c0.995,0,1.222,0.218,1.229,1.229c0.012,1.666,0.015,3.332,0.015,4.998c0,0.884-0.248,1.141-1.147,1.143
		c-2.764,0.007-5.528-0.002-8.292,0c-6.183,0.007-12.366,0.015-18.55,0.024c-0.995,0.002-1.209-0.176-1.216-1.171
		c-0.012-1.774,0.002-3.55,0.022-5.326c0.008-0.67,0.276-0.889,1.034-0.89c1.373-0.001,2.746,0.012,4.118,0.013
		c3.148,0.002,6.297,0,9.445,0C35.67,25.723,35.67,25.716,35.67,25.709z"/>
	<path fill-rule="evenodd" clip-rule="evenodd" fill="#FFFFFF" d="M35.312,44.583c-0.75,0-1.5,0.013-2.25-0.003
		c-0.638-0.013-0.92-0.257-0.938-0.893c-0.028-0.968-0.005-1.94,0.017-2.908c0.012-0.528,0.322-0.81,0.842-0.814
		c1.591-0.009,3.183-0.008,4.775-0.002c0.523,0.005,0.827,0.281,0.839,0.812c0.021,0.988,0.042,1.976,0.021,2.964
		c-0.014,0.545-0.309,0.81-0.891,0.828c-0.806,0.023-1.61,0.006-2.415,0.006C35.312,44.577,35.312,44.58,35.312,44.583z"/>
	<path fill-rule="evenodd" clip-rule="evenodd" fill="#FFFFFF" d="M24.272,44.581c-0.768,0-1.538,0.014-2.305-0.004
		c-0.619-0.013-0.89-0.245-0.904-0.86c-0.024-1.006-0.001-2.012,0.022-3.018c0.012-0.495,0.341-0.725,0.796-0.729
		c1.61-0.014,3.22-0.014,4.83-0.002c0.488,0.004,0.799,0.261,0.811,0.775c0.022,1.006,0.052,2.013,0.03,3.016
		c-0.012,0.549-0.39,0.806-0.919,0.811c-0.786,0.011-1.573,0.004-2.36,0.004C24.272,44.575,24.272,44.58,24.272,44.581z"/>
	<path fill-rule="evenodd" clip-rule="evenodd" fill="#FFFFFF" d="M46.399,39.955c0.73,0,1.461-0.009,2.193,0.002
		c0.754,0.012,0.995,0.22,1.026,0.974c0.036,0.931,0.023,1.863,0.021,2.794c0,0.539-0.315,0.825-0.82,0.833
		c-1.645,0.022-3.288,0.02-4.931,0.011c-0.452-0.004-0.731-0.287-0.738-0.728c-0.017-1.077-0.016-2.155,0.026-3.23
		c0.019-0.503,0.431-0.641,0.865-0.649c0.785-0.013,1.571-0.001,2.356-0.001C46.399,39.957,46.399,39.956,46.399,39.955z"/>
	<path fill-rule="evenodd" clip-rule="evenodd" fill="#FFFFFF" d="M26.817,21.968c-0.207,0.147-0.429,0.428-0.616,0.406
		c-0.206-0.024-0.379-0.327-0.566-0.508c0.191-0.181,0.361-0.462,0.58-0.507c0.164-0.035,0.391,0.235,0.589,0.371
		C26.808,21.808,26.812,21.889,26.817,21.968z"/>
	<path fill-rule="evenodd" clip-rule="evenodd" fill="#FFFFFF" d="M21.511,21.966c-0.209,0.146-0.418,0.406-0.627,0.406
		c-0.184,0-0.482-0.265-0.527-0.458c-0.081-0.352,0.179-0.615,0.54-0.569c0.214,0.028,0.403,0.25,0.604,0.384
		C21.503,21.808,21.507,21.887,21.511,21.966z"/>
	<path fill-rule="evenodd" clip-rule="evenodd" fill="#FFFFFF" d="M24.137,21.944c-0.206,0.154-0.393,0.395-0.621,0.441
		c-0.322,0.065-0.553-0.153-0.557-0.51c-0.003-0.355,0.226-0.571,0.548-0.532c0.217,0.027,0.411,0.24,0.615,0.369
		C24.128,21.79,24.132,21.867,24.137,21.944z"/>
</g>
</svg>
